<svg width="24" height="24" viewBox="0 0 24 24" fill="none" xmlns="http://www.w3.org/2000/svg">
<path fill-rule="evenodd" clip-rule="evenodd" d="M13.5137 3.80589C14.5869 2.73113 16.3274 2.73047 17.4013 3.80442L19.8932 6.29627C20.958 7.36105 20.969 9.08481 19.918 10.1632L10.6849 19.6364C9.97933 20.3603 9.01167 20.7685 8.00124 20.7684L5.24909 20.7683C3.96984 20.7683 2.94823 19.7019 3.00203 18.4228L3.12019 15.6138C3.15968 14.6747 3.54996 13.7847 4.2138 13.1199L13.5137 3.80589ZM16.3415 4.86588C15.8533 4.37772 15.0622 4.37802 14.5744 4.86655L12.9113 6.53215L17.1911 10.8119L18.8446 9.11542C19.3224 8.62525 19.3173 7.84172 18.8333 7.35773L16.3415 4.86588ZM5.27446 14.1806L11.8514 7.59361L16.144 11.8862L9.61148 18.5887C9.18816 19.023 8.60756 19.2679 8.0013 19.2679L5.24916 19.2678C4.82274 19.2677 4.4822 18.9123 4.50014 18.4859L4.61829 15.6769C4.64199 15.1135 4.87616 14.5795 5.27446 14.1806ZM20.5148 20.6951C20.9289 20.6951 21.2645 20.3592 21.2645 19.9449C21.2645 19.5305 20.9289 19.1946 20.5148 19.1946H14.3931C13.9791 19.1946 13.6434 19.5305 13.6434 19.9449C13.6434 20.3592 13.9791 20.6951 14.3931 20.6951H20.5148Z" fill="#717171"/>
</svg>
